<?xml version="1.0" encoding="UTF-8"?>
<svg width="551px" height="437px" viewBox="0 0 551 437" version="1.1" xmlns="http://www.w3.org/2000/svg" xmlns:xlink="http://www.w3.org/1999/xlink">
    <!-- Generator: Sketch 50.2 (55047) - http://www.bohemiancoding.com/sketch -->
    <title>Woman 1</title>
    <desc>Created with Sketch.</desc>
    <defs>
        <path d="M5.24860105,142.195441 C13.0926966,137.248425 17.9515738,133.181104 19.8252325,129.993478 C22.6357206,125.212039 23.2325118,102.970744 19.8252325,87.1235673 C16.4179532,71.2763908 9.69804282,36.5433742 9.69804282,32.6388138 C9.69804282,28.7342534 13.3699969,3.4939987 15.9122243,0.868431012 C18.4544517,-1.75713668 44.8923078,5.5882015 44.8923078,7.18398573 C44.8923078,8.77976995 36.0035616,39.9022086 34.7668077,43.0633651 C33.5300538,46.2245215 33.3070326,46.9704598 34.7668077,50.4044793 C36.2265828,53.8384989 39.6513097,74.9047091 37.9389463,82.3066474 C36.2265828,89.7085856 33.3653222,116.617275 36.5425295,125.212039 C39.7197367,133.806803 40.3043226,135.700793 40.3043226,138.867863 C40.3043226,142.034933 18.2077435,148.70276 13.9528932,148.70276 C9.69804282,148.70276 -0.955443069,152.098765 0.517848454,148.70276 C1.5000428,146.438757 3.07696033,144.269651 5.24860105,142.195441 Z" id="path-1"></path>
        <path d="M1.11083457,132.552309 C2.52245735,130.182708 5.34401337,128.036974 5.34401337,123.339168 C5.34401337,118.641362 9.22576483,114.952219 9.22576483,108.404351 C9.22576483,101.856482 10.5453069,73.3241309 9.22576483,61.4490971 C7.90622276,49.5740633 -0.113247664,11.5278303 1.11083457,7.43066068 C1.92688939,4.69921424 11.627185,2.22232735 30.2117212,0 C29.2193896,3.80318718 28.7232237,7.36279691 28.7232237,10.6788292 C28.7232237,15.6528776 28.7232237,27.9646613 28.7232237,34.3951057 C28.7232237,40.8255501 31.5346424,67.5179769 28.7232237,83.1269261 C25.9118051,98.7358753 18.3426009,117.488241 18.3426009,123.339168 C18.3426009,129.190095 20.5811101,134.948097 16.1136052,137.975779 C11.6461002,141.00346 7.2286639,141.652249 5.34401337,140.354671 C3.45936284,139.057093 -0.300788213,134.921909 1.11083457,132.552309 Z" id="path-3"></path>
        <path d="M13.2250938,8.80849238 C3.89364713,13.0394826 5.10581338,23.3682283 3.63447134,28.056742 C2.1631293,32.7452557 -1.00157969,39.0211059 0.580774807,39.0211059 C2.1631293,39.0211059 18.3171498,39.5043185 23.1026407,43.1233442 C27.8881316,46.74237 63.1994866,48.5907426 68.5434555,47.6665563 C73.8874244,46.74237 94.0797366,37.7066325 103.333906,39.0211059 C112.588075,40.3355793 118.413667,41.7151006 119.860245,39.0211059 C121.306823,36.3271113 118.291554,16.4326071 116.695536,12.541563 C115.099519,8.65051903 72.2956766,-0.559242539 63.7212451,0.812675714 C55.1468136,2.18459397 22.5565404,4.57750218 13.2250938,8.80849238 Z" id="path-5"></path>
        <path d="M28.0280196,89.309006 C24.2375041,81.837796 22.569069,73.1898113 22.569069,66.6503906 C22.569069,60.1109699 18.7903804,59.4917482 17.119411,53.8832721 C15.4484416,48.2747959 16.0583707,48.130339 13.1345967,48.130339 C10.2108226,48.130339 3.25154763,46.6908386 1.00275059,46.6908386 C-1.24604644,46.6908386 1.00275059,45.7708761 1.00275059,42.9484753 C1.00275059,40.1260746 3.04795631,36.2350305 3.04795631,30.1864254 C3.04795631,24.1378203 2.45999135,19.0074881 7.79729401,16.1867769 C13.1345967,13.3660656 17.043381,11.1620418 20.4841587,9.89909981 C23.9249365,8.63615782 30.0994134,8.34893355 32.3338492,8.34893355 C34.568285,8.34893355 50.6857902,11.4492661 55.6429431,9.89909981 C60.600096,8.34893355 67.289887,4.02705315 68.8974981,2.40170172 C70.5051092,0.776350292 71.8077557,0.0751851752 71.8077557,1.23844345 C71.8077557,2.40170172 83.9624108,6.7987673 87.7799592,8.34893355 C91.5975076,9.89909981 98.8997621,11.8192785 98.8997621,16.1867769 C98.8997621,20.5542752 98.8997621,31.8759799 98.8997621,35.6740985 C98.8997621,38.2061775 99.6428845,41.8784242 101.129129,46.6908386 C98.961994,46.7601103 95.7417032,47.2399438 91.4682567,48.130339 C85.0580869,49.4659318 79.2249,44.0923037 79.2249,50.6528439 C79.2249,57.213384 79.2249,66.8767909 79.2249,69.4770153 C79.2249,72.0772397 82.0515247,85.8065595 82.0515247,87.5577828 C82.0515247,89.309006 75.860997,100.759962 66.5828084,100.759962 C57.3046199,100.759962 31.8185351,96.780216 28.0280196,89.309006 Z" id="path-7"></path>
        <path d="M0.113200151,100.291955 C22.1889192,102.936108 36.1947628,104.258184 42.130731,104.258184 C51.0346832,104.258184 78.2601644,106.241299 86.0980077,104.258184 C93.935851,102.27507 98.9504487,99.1447475 102.778979,99.1447475 C106.60751,99.1447475 118.942102,93.0969872 118.942102,90.9673037 C118.942102,88.8376203 108.438987,75.682749 105.608983,63.3591385 C102.778979,51.035528 84.0485781,13.8847589 82.9267139,11.237227 C82.1788044,9.4722057 81.2309644,5.79094804 80.0831937,0.19345399 C60.1211073,1.78050885 47.4702864,2.57403628 42.130731,2.57403628 C36.7911756,2.57403628 30.2869539,1.78050885 22.6180661,0.19345399 C23.5698484,7.55596931 23.5698484,11.237227 22.6180661,11.237227 C21.1903925,11.237227 7.20510516,40.7402276 5.92357807,50.1079625 C4.64205098,59.4756974 2.47435256,70.8962411 2.47435256,77.5834978 C2.47435256,82.0416689 1.68730176,89.6111547 0.113200151,100.291955 Z" id="path-9"></path>
        <path d="M65.1069995,8.08892801 C64.6871386,19.8975163 57.5339938,32.4624412 56.2330369,36.4514794 C54.9320799,40.4405175 47.9411258,49.0403499 45.1580071,52.8798625 C42.3748885,56.7193751 24.1589567,77.3885401 18.9006407,88.5505819 C13.6423247,99.7126237 14.7253291,97.9863214 12.6294368,100.804921 C10.5335444,103.62352 9.45603103,102.992894 7.13796226,104.799872 C4.81989349,106.606851 1.51005623,104.118137 1.51005623,99.8659507 C1.51005623,95.6137645 0.123776763,96.7466108 0.816916495,93.4583153 C1.51005623,90.1700199 14.4579571,73.1633867 18.9006407,66.0989369 C23.3433242,59.0344872 30.4170087,42.4903695 32.869397,39.2282622 C35.3217854,35.9661548 44.2701462,17.981692 46.8462945,11.111541 C49.4224427,4.24139003 53.7219365,0.242214533 57.5204774,0.242214533 C61.3190183,0.242214533 65.3308588,1.7928839 65.1069995,8.08892801 Z" id="path-11"></path>
        <rect id="path-13" x="0" y="0" width="26.816609" height="26.816609" rx="4"></rect>
        <circle id="path-15" cx="13.4083045" cy="13.4083045" r="7.35294118"></circle>
        <path d="M37.6525668,0.72481888 C41.4675808,0.72481888 43.6352792,2.9924504 45.1605246,3.74869904 C46.6857699,4.50494769 38.2352753,19.2229063 31.2153641,20.2374838 C27.2694096,20.9762415 30.1534791,23.54183 30.1534791,24.4854462 C30.1534791,25.4290624 26.6794944,26.8791225 24.8035048,26.8791225 C22.9275152,26.8791225 24.5863971,29.2516794 23.4666448,29.9562236 C22.3468926,30.6607679 7.21904398,30.6607679 5.46064014,29.9562236 C3.70223629,29.2516794 0.820701098,18.5914353 0.820701098,17.3973427 C0.820701098,16.20325 0.345513895,13.5101002 1.86526817,12.640402 C3.38502244,11.7707038 11.2321583,12.640402 14.756569,12.640402 C17.9194075,12.640402 19.2311597,12.0730211 21.3601927,11.5240288 C21.3601927,11.5240288 26.3747905,9.58822178 27.1693035,10.5500007 C27.9638165,11.5117796 33.6111524,10.5500007 37.6525668,0.72481888 Z" id="path-16"></path>
        <path d="M80.3782927,6.11960982 C79.555198,9.78481671 78.8820514,13.2172875 78.3588527,16.4170221 C77.5740546,21.216624 77.9499805,29.8494027 75.8616911,31.4637721 C73.7734017,33.0781414 33.4466926,53.342658 26.0101185,55.88586 C18.5735443,58.4290619 4.00240396,66.1891857 3.4478077,68.5646993 C2.89321143,70.9402129 8.29302761,65.6383909 7.60157743,67.5501218 C6.91012725,69.4618527 1.14747925,73.7934481 1.82203388,75.6760342 C2.49658851,77.5586203 -1.13257455,79.5265289 1.03385671,81.1455445 C3.20028796,82.7645601 14.0675025,83.8771317 17.0098617,82.7645601 C19.9522208,81.6519884 20.6470501,75.6418207 25.2814981,71.3596448 C29.9159461,67.0774689 29.0095001,66.8527582 33.2207147,64.7323673 C37.4319293,62.6119764 78.8209458,49.8224712 83.4266714,46.8741986 C88.0323969,43.925926 89.0951267,44.9916125 90.6909109,41.5719542 C92.2866952,38.1522959 99.2738478,16.4170221 99.2738478,5.53967023 C99.2738478,-1.71189767 92.9753294,-1.51858448 80.3782927,6.11960982 Z" id="path-18"></path>
        <path d="M0.432525952,2.37889273 C0.432525952,3.13581315 0.432525952,8.32654696 0.432525952,11.0294118 C0.432525952,13.7322766 -0.540657439,18.490062 0.432525952,18.490062 C1.40570934,18.490062 21.0860625,17.517301 23.2486923,17.517301 C25.411322,17.517301 29.5203186,17.949827 29.5203186,16.1115917 C29.5203186,14.2733564 27.5342473,1.44879298 26.816609,0.648788927 C26.0989707,-0.151215128 13.070816,1.62112754 9.71916225,1.62112754 C6.36750852,1.62112754 0.432525952,1.62197232 0.432525952,2.37889273 Z" id="path-20"></path>
        <path d="M4.60741512,1.55734686 C5.88094615,-0.706652203 7.7419611,0.98881177 10.2864302,0.98881177 C12.8308992,0.98881177 19.0471926,0.920384813 20.7451949,2.63697218 C22.0862788,5.05937095 22.2759313,7.78419996 23.1046578,9.71705031 C23.6571421,11.0056172 24.0002624,11.7128366 24.1340188,11.8387084 C23.2943103,18.5890418 22.6014521,21.9642085 22.0554444,21.9642085 C20.7451949,22.6679079 10.4612991,20.6814142 7.19158872,19.599677 C5.01178183,18.8785188 2.82859582,18.581298 0.642030709,18.7080146 C1.04414468,13.22006 2.36593948,7.50317073 4.60741512,1.55734686 Z" id="path-22"></path>
        <path d="M0.501797686,12.5977407 C9.06586785,14.658434 14.4646984,15.6887807 16.6982895,15.6887807 C20.0486761,15.6887807 31.3095568,11.9075577 33.231425,9.79476982 C35.1532933,7.68198192 38.6886861,5.41206545 39.3201571,5.41206545 C39.9516281,5.41206545 34.8086242,2.2872344 33.7898228,0.904334045 C32.7710214,-0.478566312 31.2115626,1.61605888 28.3308722,3.70646018 C19.9377449,9.79476982 5.96877365,10.5111409 4.06380096,10.5111409 C2.79381916,10.5111409 1.60648474,11.2066742 0.501797686,12.5977407 Z" id="path-24"></path>
        <path d="M5.58883509,10.3485213 C2.4027154,13.0477881 -1.98311459,23.244046 2.67878866,29.4793469 C7.34069191,35.7146478 3.57087343,42.8479469 4.99643504,44.1108888 C6.42199665,45.3738308 7.66994384,43.7951533 9.57723967,44.5639006 C11.4845355,45.3326479 10.2889645,48.1577943 11.593723,48.1577943 C12.8984814,48.1577943 14.9474886,47.4395224 13.922985,48.6302359 C12.8984814,49.8209495 13.6528675,50.9052211 14.5580463,50.9052211 C15.4632252,50.9052211 16.123841,55.245053 17.5992444,55.245053 C19.0746479,55.245053 23.5781554,55.245053 26.4292786,55.245053 C29.2804018,55.245053 44.3508056,54.6034447 51.9584471,48.1577943 C42.6473123,43.3438311 44.3508056,36.9585823 44.3508056,35.4827564 C44.3508056,34.0069306 45.2226157,30.1129298 44.3508056,27.4586397 C43.4789955,24.8043496 41.8202753,3.81966033 28.932776,1.33770477 C16.0452767,-1.14425078 16.7280679,0.229779412 5.58883509,10.3485213 Z" id="path-26"></path>
    </defs>
    <g id="Home" stroke="none" stroke-width="1" fill="none" fill-rule="evenodd">
        <g transform="translate(-868.000000, -323.000000)" id="Group-41">
            <g transform="translate(-159.000000, 128.000000)">
                <g id="illustration" transform="translate(627.000000, 0.000000)">
                    <g id="Woman-1" transform="translate(399.702422, 195.224913)">
                        <g id="Group-12" transform="translate(171.280277, 256.920415)">
                            <mask id="mask-2" fill="white">
                                <use xlink:href="#path-1"></use>
                            </mask>
                            <use id="Path-4" fill="#F4B1A1" xlink:href="#path-1"></use>
                            <path d="M13.3221372,13.3449462 C27.0385038,16.9217331 33.8966871,20.1141463 33.8966871,22.9221859 C33.8966871,27.1342452 27.7253787,42.3554417 28.9156699,49.2623405 C30.105961,56.1692393 37.6637595,78.2060986 33.8966871,92.9567542 C30.1296148,107.70741 33.8966871,115.184533 33.8966871,121.255102 C33.8966871,127.325672 39.604847,134.960769 39.604847,136.086012 C39.604847,137.211255 40.7985172,130.336458 40.7985172,128.259151 C40.7985172,126.181843 39.604847,75.3360886 39.604847,75.3360886 C39.604847,75.3360886 39.604847,63.103171 39.604847,57.0368255 C39.604847,52.9925952 40.0027371,45.4087483 40.7985172,34.2852847 C44.7543275,23.7154317 45.5472918,17.3184968 43.17741,15.0944799 C39.6225873,11.7584545 15.8581585,5.39981618 15.8581585,7.18905439 C15.8581585,8.38187987 15.0128181,10.4338438 13.3221372,13.3449462 Z" id="Path-31" fill="#EB9C89" mask="url(#mask-2)"></path>
                        </g>
                        <g id="Group-13" transform="translate(244.809689, 262.975779)">
                            <mask id="mask-4" fill="white">
                                <use xlink:href="#path-3"></use>
                            </mask>
                            <use id="Path-5" fill="#F4B1A1" xlink:href="#path-3"></use>
                            <path d="M10.084106,133.085363 C13.4297055,136.129377 15.2944105,136.129377 15.678221,133.085363 C16.2539367,128.519342 16.1344007,129.367498 16.1344007,126.997898 C16.1344007,124.628298 15.6832896,119.749709 16.9994526,114.016206 C18.3156155,108.282703 28.637104,74.9646883 26.1357185,60.2140328 C23.6343331,45.4633772 26.1999216,9.91515057 16.9994526,9.91515057 C10.8658066,9.91515057 5.16722084,9.91515057 -0.0963046064,9.91515057 C17.3725625,4.15039063 26.5031966,1.26801065 27.2955977,1.26801065 C28.0879988,1.26801065 30.856897,1.26801065 35.6022924,1.26801065 C39.6600391,21.6446011 41.6889125,32.2026271 41.6889125,32.9420888 C41.6889125,34.0512814 45.6416252,77.7558323 45.6416252,79.1514044 C45.6416252,80.5469764 29.6728009,106.47488 28.4841993,108.852928 C27.6917982,110.438293 25.629697,117.66142 22.2978955,130.522309 C18.7656002,138.736923 16.9994526,142.84423 16.9994526,142.84423 C16.9994526,142.84423 14.6943371,139.591274 10.084106,133.085363 Z" id="Path-32" fill="#EB9C89" mask="url(#mask-4)"></path>
                        </g>
                        <path d="M159.591431,407.85271 C160.402312,408.501394 171.944609,409.717979 176.919502,408.852927 C181.894395,407.987875 202.653951,405.176456 205.898741,405.176456 C209.14353,405.176456 213.900471,403.013826 213.900471,401.283723 C213.900471,399.553619 212.004685,390.385674 210.71207,391.036469 C210.71207,391.036469 206.764637,393.931626 203.736111,396.309674 C200.707585,398.687722 187.245953,402.554162 184.29937,402.310866 C181.352787,402.06757 181.298722,400.769359 181.460919,399.877591 C181.623116,398.985823 182.325865,396.850332 180.893229,396.309674 C179.460592,395.769017 177.351817,395.417378 176.676101,396.066273 C176.000384,396.715167 172.972491,399.715605 171.647986,400.310434 C170.323481,400.905262 161.618685,404.067897 160.402312,404.960088 C159.185938,405.852278 158.780551,407.204027 159.591431,407.85271 Z" id="Path-2" fill="#13287E"></path>
                        <path d="M248.837712,407.920415 C244.175518,407.920415 242.214533,407.057897 242.214533,405.011847 C242.214533,402.965796 244.697855,399.380562 244.697855,397.962181 C244.697855,396.5438 245.988902,394.02214 247.280318,394.02214 C248.571734,394.02214 255.170868,393.666066 256.050555,395.217922 C256.930243,396.769778 259.666595,401.002534 260.839265,399.482358 C262.011935,397.962181 263.25526,393.374618 263.25526,391.462887 C263.25526,389.551156 264.550006,389.84894 264.550006,391.462887 C264.550006,393.076834 265.281722,397.080788 264.550006,399.214629 C263.81829,401.34847 263.171287,403.578682 262.005276,405.011847 C260.839265,406.445012 253.499906,407.920415 248.837712,407.920415 Z" id="Path-6" fill="#13287E"></path>
                        <g id="Group-6" transform="translate(179.065744, 230.968858)">
                            <mask id="mask-6" fill="white">
                                <use xlink:href="#path-5"></use>
                            </mask>
                            <use id="Path-7" fill="#247FFB" xlink:href="#path-5"></use>
                            <path d="M2.25175376,39.5727455 C-2.61120648,38.222369 5.68957477,34.2172801 5.68957477,29.7399607 C5.68957477,25.2626412 11.0758745,22.7667722 19.5211127,23.8569572 C27.9663508,24.9471422 39.1220568,33.6538137 51.4591837,33.6538137 C63.7963107,33.6538137 60.3932261,34.6805139 69.8816636,30.9526384 C75.6054519,28.7038414 84.7374939,26.2691933 97.0154865,27.2879947 C104.769457,27.9314024 105.938664,22.6856796 110.173315,23.8569572 C115.403753,25.3036636 118.416229,29.7399607 119.023201,37.7209937 C119.630173,45.7020268 119.023201,49.7169319 119.023201,43.0278844 C119.023201,41.4630832 125.448695,41.4978358 125.792401,38.8956565 C126.917932,30.3743135 122.865032,15.8907086 120.438203,12.4452584 C117.270288,7.94766436 68.0575079,6.82411062 62.039878,6.82411062 C56.0222481,6.82411062 23.4510164,6.82411062 19.5211127,6.82411062 C16.9011768,6.82411062 10.3062824,10.4375045 -0.263570502,17.6642923 C-2.66245138,29.4426092 -3.72236523,36.5197306 -3.44331207,38.8956565 C-3.123895,41.6152503 4.32264484,40.1478031 2.25175376,39.5727455 Z" id="Path-25" fill="#0A56DF" mask="url(#mask-6)"></path>
                        </g>
                        <g id="Group-7" transform="translate(180.795848, 67.474048)">
                            <mask id="mask-8" fill="white">
                                <use xlink:href="#path-7"></use>
                            </mask>
                            <use id="Path-10" fill="#247FFB" xlink:href="#path-7"></use>
                            <path d="M84.519119,29.1203166 C84.9041857,30.0412469 76.171875,44.4133191 76.171875,48.323793 C76.171875,52.2342669 79.5991363,84.6297848 76.171875,86.9748865 C72.7446137,89.3199881 70.7458707,90.2289684 64.9025465,89.7744783 C59.0592223,89.3199881 47.1715168,86.9748865 41.5529033,86.9748865 C35.9342898,86.9748865 26.5327638,94.5913981 23.8100468,86.9748865 C21.0873297,79.3583748 20.1285075,77.4365065 20.1285075,69.7786008 C20.1285075,62.120695 20.3836302,66.9664312 17.8847791,59.3714144 C15.385928,51.7763976 3.03950854,50.0006758 0.471385705,48.323793 C-1.24069619,47.2058711 -2.36122281,46.5016085 -2.89019416,46.2110051 C-1.34176266,45.399597 -0.221236035,44.9636919 0.471385705,44.9032899 C2.80918824,44.6994152 4.54804282,45.9233584 5.54152756,45.9233584 C7.69401999,45.9233584 13.4809553,46.2110051 13.4809553,44.9032899 C13.4809553,43.5955747 14.6720913,39.7062203 14.6720913,36.6337654 C14.6720913,33.5613106 15.9924781,44.0982172 15.9924781,46.2110051 C15.9924781,48.323793 20.1285075,56.8704044 25.3914698,61.0081234 C30.654432,65.1458423 26.5834505,73.103644 29.4041617,80.0392652 C32.2248729,86.9748865 52.9692231,81.5683121 60.9979861,74.8624703 C69.026749,68.1566285 69.2860956,61.8023079 72.2369026,59.3714144 C75.1877095,56.9405209 73.6265611,47.2078422 74.7416671,44.9032899 C75.8567731,42.5987376 84.1890818,28.3309954 84.519119,29.1203166 Z" id="Path-26" fill="#0A56DF" mask="url(#mask-8)"></path>
                            <path d="M42.3854313,9.13415401 C45.2244461,11.6166727 48.7587125,12.5294546 52.9882306,11.8724995 C59.3325077,10.8870668 65.2981879,9.98399992 67.50615,8.09169888 C69.7141121,6.19939784 69.5678289,4.18249216 71.9999426,4.18249216 C74.4320563,4.18249216 82.9613498,7.31239187 89.4475495,9.13415401 C93.7716826,10.3486621 91.1520284,6.63797803 81.5885867,-1.99789819 L67.50615,-0.151215128 C48.5882083,5.34406088 39.1292374,8.09169888 39.1292374,8.09169888 C39.1292374,8.09169888 40.2146354,8.43918392 42.3854313,9.13415401 Z" id="Path-60" fill="#0A56DF" mask="url(#mask-8)"></path>
                        </g>
                        <g id="Group-8" transform="translate(183.391003, 151.384083)">
                            <mask id="mask-10" fill="white">
                                <use xlink:href="#path-9"></use>
                            </mask>
                            <use id="Path-8" fill="#FFFFFF" xlink:href="#path-9"></use>
                            <path d="M-0.575293307,100.712654 C1.14129406,98.7265828 5.7554674,87.2435256 5.7554674,75.0939392 C5.7554674,62.9443528 14.5690284,53.434273 18.7709505,51.6222258 C22.9728725,49.8101786 14.1001771,50.3875838 23.2702341,40.9142517 C32.4402911,31.4409197 47.9077402,31.4409197 69.4195704,28.6928593 C90.9314007,25.9447989 91.4361551,54.8750405 93.8530628,66.4315933 C96.2699705,77.9881461 104.271701,80.6610213 98.2551971,87.4842871 C92.2386935,94.307553 92.1026844,96.4178066 84.7818447,100.712654 C77.4610051,105.007502 33.4135022,102.789117 32.4402911,103.622067 C31.7914838,104.177367 48.0230339,105.988288 81.1349413,109.054829 L127.439717,94.2940365 C120.051858,89.575674 115.103153,82.2275199 112.593601,72.2495742 C108.829274,57.2826557 105.091135,33.2056593 98.2551971,25.0315947 C91.4192596,16.85753 84.7818447,3.09948773 84.7818447,1.67772762 C84.7818447,0.729887543 80.5827386,-0.399016454 72.1845264,-1.70898438 C51.1861799,12.7457175 37.9381015,20.8161562 32.4402911,22.5023316 C24.1935756,25.0315947 15.4712505,29.8113443 15.4712505,28.6928593 C15.4712505,27.5743742 23.4282075,14.4085208 25.0628514,14.4085208 C26.6974954,14.4085208 24.5475373,6.18207991 43.5837478,3.86823502 C56.2745549,2.32567177 64.8864957,-0.900532548 69.4195704,-5.81037792 C37.1440109,-4.63163206 21.0062311,-4.04225914 21.0062311,-4.04225914 C21.0062311,-4.04225914 11.2034359,8.22221697 11.2034359,8.22221697 C11.2034359,8.22221697 10.1530962,12.5373392 8.05241674,21.1675835 C-2.77819078,62.8156651 -8.19349454,84.921233 -8.19349454,87.4842871 C-8.19349454,91.3288684 -2.29188068,102.698725 -0.575293307,100.712654 Z" id="Path-27" fill="#EFEFEF" mask="url(#mask-10)"></path>
                        </g>
                        <g id="Group-24" transform="translate(130.000000, 120.000000)">
                            <mask id="mask-12" fill="white">
                                <use xlink:href="#path-11"></use>
                            </mask>
                            <use id="Path-16" fill="#F4B1A1" xlink:href="#path-11"></use>
                            <path d="M60.8747263,13.8092662 C58.1904815,23.9062714 55.5366729,31.5779836 52.9133005,36.8244029 C50.2899281,42.0708222 41.4438995,54.4054576 26.3752146,73.8283092 C18.4214385,78.3953665 13.9718943,81.4870006 13.0265818,83.1032115 C11.608613,85.5275279 7.32687473,92.9469615 7.32687473,94.4596568 C7.32687473,95.4681204 5.73540338,98.4355683 2.55246067,103.362001 L7.32687473,99.2838756 L9.66476535,91.6315318 L27.9323435,79.9186412 L64.4704294,37.7125865 L69.636445,12.1491099 L58.0973825,8.00799666 L60.8747263,13.8092662 Z" id="Path-110" fill="#EB9C89" mask="url(#mask-12)"></path>
                        </g>
                        <g id="Vacum" transform="translate(0.000000, 187.716263)">
                            <path d="M273.373702,225.950143 C273.373702,226.491223 273.265571,228.86927 273.589965,230.599797 C273.91436,232.330323 274.67128,236.547451 276.509938,238.385686 C278.348596,240.223921 287.53935,247.793126 290.134505,248.550046 C292.729661,249.306966 340.308361,248.11752 342.578699,246.279285 C344.849038,244.44105 338.577412,233.519769 339.550595,231.573402 C340.523779,229.627036 346.147039,222.274517 350.039772,223.679804 C353.932506,225.085091 364.853364,227.571693 364.853364,225.085091 C364.853364,222.598489 343.49486,205.879502 339.550595,220.386017 C335.60633,234.892532 273.373702,225.409063 273.373702,225.950143 Z" id="Path-19" fill="#0D1843"></path>
                            <path d="M273.57085,226.727701 C272.132194,224.620404 278.221349,214.941369 283.194975,210.291715 C288.168601,205.642061 300.82083,196.12649 308.497743,196.12649 C316.174656,196.12649 339.639189,194.72078 344.288421,196.12649 C348.937652,197.532199 365.266774,210.940926 364.725694,222.078047 C364.725694,228.674068 362.563487,212.778739 350.776732,214.29258 C338.989978,215.806421 336.503376,227.484621 335.638746,230.512303 C334.774117,233.539985 302.87575,233.216013 300.712276,233.972511 C298.548801,234.729009 279.40995,232.242407 273.57085,226.727701 Z" id="Path-18" fill="#247FFB"></path>
                            <path d="M365.165526,224.264085 C364.329478,215.924444 361.438791,210.737652 356.493465,208.70371 C349.075476,205.652797 332.878984,205.042445 315.968655,215.339224 C307.614288,220.426238 304.609761,227.819635 297.470568,231.749233 C295.807516,232.664621 291.806369,233.005347 285.467128,232.771414 C290.877435,234.219644 294.878582,234.943759 297.470568,234.943759 C321.544608,234.943759 333.34221,236.028938 335.332639,234.329183 C338.806364,231.362748 336.572772,223.72655 343.488541,222.835144 C348.099054,222.240873 355.324715,222.717186 365.165526,224.264085 Z" id="Path-34" fill="#13287E"></path>
                            <path d="M286.132812,211.783621 C284.863798,214.728772 285.343001,216.574047 287.570423,217.319445 C290.911557,218.437543 298.638022,214.571526 300.336681,211.783621 C302.035339,208.995716 300.846885,205.882353 298.936654,205.882353 C297.663167,205.882353 293.395219,207.849442 286.132812,211.783621 Z" id="Path-35" fill="#13287E"></path>
                            <path d="M135.06362,44.2528114 L44.7626345,204.80315 C39.7190327,202.980261 37.1972318,201.551532 37.1972318,200.516961 C37.1972318,199.482391 67.6361753,145.907533 128.514062,39.7923875 L135.06362,44.2528114 Z" id="Path-20" fill="#D9D9D9"></path>
                            <polygon id="Path-36" fill="#B7B6B6" points="135.859189 43.5254582 44.982699 205.095865 131.574057 45.6724596 128.86739 40.6574394"></polygon>
                            <path d="M286.817927,214.032764 C289.579785,215.097183 292.412323,214.492886 295.315541,212.219872 C298.218759,209.946858 299.229113,208.167475 298.346602,206.881724 C285.372513,188.768574 270.323088,180.176344 253.198327,181.105036 C227.511185,182.498074 213.341437,185.935473 213.653459,178.183796 C213.965481,170.43212 211.373405,164.909812 230.167165,118.746114 C234.260955,114.854225 243.816231,87.5586275 234.788096,55.7299551 C232.431168,48.6051038 222.442521,2.01225941 183.265132,0 C177.925295,0 153.180079,4.51280006 141.704625,19.1536346 C134.054323,28.9141909 129.495341,36.0001825 128.027682,40.4116093 L134.866153,44.091459 C146.437349,21.2306602 162.053057,9.80026087 181.713276,9.80026087 C192.989363,11.2254001 213.187142,9.80026087 225.997344,57.4533007 C227.847406,67.6641233 234.788096,86.5051903 221.965222,114.811986 C219.462992,118.746114 199.152013,162.682134 203.969777,181.105036 C206.93579,186.206646 206.93579,196.251892 241.003122,190.093466 C265.602473,186.300979 280.874074,194.280745 286.817927,214.032764 Z" id="Path-17" fill="#000000"></path>
                            <g id="Group-27" transform="translate(439.446367, 108.996540)">
                                <g id="Group-36">
                                    <mask id="mask-14" fill="white">
                                        <use xlink:href="#path-13"></use>
                                    </mask>
                                    <use id="Rectangle-5" fill="#D9E8EC" xlink:href="#path-13"></use>
                                    <path d="M5.10414414,-0.0825769761 C16.4844201,0.690253411 22.8361594,1.33122815 24.1593622,1.84034724 C26.1441663,2.60402587 25.8793286,18.8436013 26.577537,25.5409954 C27.2757454,32.2383894 27.9843023,25.9895721 27.9843023,25.5409954 C27.9843023,25.2419442 28.3115831,16.7007534 28.9661447,-0.0825769761 C17.7194844,-2.38149746 11.9833765,-3.4310628 11.7578209,-3.23127298 C11.5322654,-3.03148316 9.31437315,-1.98191782 5.10414414,-0.0825769761 Z" id="Path-108" fill="#C8DADF" mask="url(#mask-14)"></path>
                                </g>
                                <g id="Oval-2">
                                    <use fill="#FFFFFF" xlink:href="#path-15"></use>
                                    <use fill="#13287E" xlink:href="#path-15"></use>
                                </g>
                            </g>
                            <path d="M364.186851,222.575151 C377.184031,237.682021 392.650776,245.235456 410.587086,245.235456 C437.491552,245.235456 421.996648,227.24508 474.335667,239.278087 C526.674686,251.311094 575.732591,229.966952 535.428268,205.882353 C495.123946,181.797754 450.812845,184.158906 452.695853,123.082356" id="Path-24" stroke="#13287E" stroke-width="2" stroke-linecap="round" stroke-linejoin="round"></path>
                            <ellipse id="Oval" fill="#000000" cx="352.508651" cy="231.401384" rx="15.1384083" ry="16.8685121"></ellipse>
                            <g id="Group-14" transform="translate(0.000000, 199.826990)">
                                <mask id="mask-17" fill="white">
                                    <use xlink:href="#path-16"></use>
                                </mask>
                                <use id="Path-21" fill="#000000" xlink:href="#path-16"></use>
                                <path d="M0.881947448,15.4218311 C3.27604617,22.8747376 5.12470039,26.6011908 6.42791009,26.6011908 C8.38272464,26.6011908 21.0417117,27.7779655 21.0417117,26.6011908 C21.0417117,25.4244161 24.3946326,24.2155398 26.4508204,24.2155398 C28.5070083,24.2155398 26.5230489,21.1599805 27.8941224,19.3580707 C29.2651959,17.5561608 30.5372192,20.0734201 34.3547676,16.1785746 C38.172316,12.2837291 41.4312554,7.20658352 40.3372689,5.53054546 C39.6079445,4.41318675 38.8130091,2.85464312 37.9524627,0.854914576 L40.3372689,-2.08659981 L46.719561,-0.786487619 L48.0213627,6.22516355 L33.6609943,34.4229833 L17.6609132,34.4229833 C9.04756434,34.5313964 4.28893409,34.2153089 3.38502244,33.4747209 C2.48111078,32.7341328 0.506021572,26.1351553 -2.54024519,13.6777884 L0.881947448,15.4218311 Z" id="Path-37" fill="#212121" mask="url(#mask-17)"></path>
                            </g>
                            <path d="M145.870222,27.1410035 C144.90595,28.40919 144.278985,28.9516778 143.989325,28.7684668 C142.049568,27.5415617 142.337175,25.0865052 141.358267,25.0865052 C139.561003,25.0865052 138.408304,27.1238967 138.408304,30.2586539 C138.408304,33.3934111 139.516652,38.6198367 140.296382,39.2251196 C141.076111,39.8304025 143.603712,39.361143 143.989325,37.5351427 C144.543077,34.9129542 146.152691,34.1900875 146.88142,31.578196 C147.185829,30.487143 146.848763,29.0080788 145.870222,27.1410035 Z" id="Path-22" fill="#F4B1A1"></path>
                            <path d="M139.236228,22.4515364 C139.236228,23.0289416 135.484994,26.7835541 135.144338,28.6395297 C134.803681,30.4955053 134.029866,36.2547742 131.947067,37.6672418 C129.864269,39.0797093 130.541358,36.8021899 129.616538,38.2727359 C128.691718,39.7432819 127.41526,43.3000053 126.469109,43.3000053 C125.522959,43.3000053 128.799427,37.0408394 128.799427,34.8156962 C128.799427,32.5905529 129.973726,26.7626458 131.007041,24.8154343 C132.040357,22.8682227 136.577925,17.1716785 138.668326,15.7490737 C140.758727,14.3264688 139.236228,21.8741311 139.236228,22.4515364 Z" id="Path-23" fill="#F4B1A1"></path>
                        </g>
                        <g id="Group-18" transform="translate(177.000000, 120.000000)">
                            <mask id="mask-19" fill="white">
                                <use xlink:href="#path-18"></use>
                            </mask>
                            <use id="Path-15" fill="#F4B1A1" xlink:href="#path-18"></use>
                            <path d="M86.9079294,11.520692 L94.573945,12.8947154 C91.3799346,31.5568248 88.8245961,41.3165904 86.9079294,42.1740123 C84.0329294,43.4601451 29.4850779,63.9728404 30.4113474,66.7023326 C31.0288604,68.5219941 38.9658721,69.0582896 54.2223825,68.3112193 L99.3268747,38.8493053 L102.737031,7.98114119 L90.0143747,6.20868026 L86.9079294,11.520692 Z" id="Path-109" fill="#EB9C89" mask="url(#mask-19)"></path>
                        </g>
                        <g id="Group-9" transform="translate(256.055363, 113.321799)">
                            <mask id="mask-21" fill="white">
                                <use xlink:href="#path-20"></use>
                            </mask>
                            <use id="Path-9" fill="#FFFFFF" xlink:href="#path-20"></use>
                            <path d="M-0.948684851,18.4321948 C0.853506614,17.52772 1.75460235,16.144538 1.75460235,14.282649 C1.75460235,11.4898154 1.92440257,4.54912549 3.48470615,4.54912549 C5.04500973,4.54912549 13.7335437,4.0287427 15.9578422,2.88406953 C17.4407079,2.12095408 20.1977792,1.22408223 24.2290563,0.19345399 C9.1233127,-1.6002897 1.15058661,-1.6002897 0.310878028,0.19345399 C-0.528830558,1.98719768 -0.948684851,8.06677795 -0.948684851,18.4321948 Z" id="Path-28" fill="#EFEFEF" mask="url(#mask-21)"></path>
                        </g>
                        <g id="Group-10" transform="translate(175.605536, 113.321799)">
                            <mask id="mask-23" fill="white">
                                <use xlink:href="#path-22"></use>
                            </mask>
                            <use id="Path-11" fill="#FFFFFF" xlink:href="#path-22"></use>
                            <path d="M25.2030845,18.3257529 C25.2030845,13.746497 25.2030845,10.5081842 25.2030845,8.6108145 C25.2030845,5.76475995 22.057134,-1.80190987 19.4281872,-1.80190987 C16.7992404,-1.80190987 8.01440176,0.0650478482 6.61798497,0.0650478482 C5.22156818,0.0650478482 6.95674065,2.80297091 9.14724805,2.80297091 C11.3377555,2.80297091 14.6281628,3.19748189 17.0830855,5.0906277 C19.5380082,6.98377352 23.0869174,16.2467561 23.0869174,18.3257529 C23.0869174,19.7117507 23.7923064,19.7117507 25.2030845,18.3257529 Z" id="Path-29" fill="#EFEFEF" mask="url(#mask-23)"></path>
                        </g>
                        <g id="Group-11" transform="translate(213.667820, 63.148789)">
                            <mask id="mask-25" fill="white">
                                <use xlink:href="#path-24"></use>
                            </mask>
                            <use id="Path-12" fill="#FFFFFF" xlink:href="#path-24"></use>
                            <path d="M1.29166441,12.9563487 C6.24769094,13.9543122 11.4965736,14.453294 17.0383123,14.453294 C25.3509205,14.453294 35.9342898,6.89253758 35.9342898,5.20467263 C35.9342898,3.51680769 33.7934131,1.02788272 32.6183279,0.616898586 C31.4432428,0.205914454 41.9888084,-2.83084856 44.1058202,-2.83084856 C45.5171614,-2.83084856 48.4536071,0.526296226 52.9151573,7.2405858 C33.4024924,16.4920231 23.64616,21.1177417 23.64616,21.1177417 C23.64616,21.1177417 16.1946615,18.3972773 1.29166441,12.9563487 Z" id="Path-30" fill="#EFEFEF" mask="url(#mask-25)"></path>
                        </g>
                        <path d="M201.529301,24.8374688 C201.529301,26.4290292 189.016767,26.059687 190.293225,37.2487617 C191.569684,48.4378363 185.736165,48.1321146 191.558259,50.2093355 C197.380353,52.2865563 198.603428,50.2093355 200.938392,50.2093355 C203.273357,50.2093355 214.379072,41.2318876 214.379072,39.5963989 C214.379072,37.9609101 201.529301,23.2459085 201.529301,24.8374688 Z" id="Path-103" fill="#031662" transform="translate(201.651391, 37.924923) rotate(-3.000000) translate(-201.651391, -37.924923) "></path>
                        <g id="Group-15" transform="translate(191.176471, 18.166090)">
                            <mask id="mask-27" fill="white">
                                <use xlink:href="#path-26"></use>
                            </mask>
                            <use id="Path-13" fill="#F4B1A1" xlink:href="#path-26"></use>
                            <circle id="Oval-3" fill="#13287E" mask="url(#mask-27)" cx="9.94809689" cy="32.4394464" r="1.29757785"></circle>
                            <path d="M15.2017666,54.6579328 C13.5569853,58.5929052 21.4624108,58.0784359 24.4394058,58.0784359 C27.4164008,58.0784359 38.3106482,59.9453936 41.743823,58.0784359 C45.1769977,56.2114782 27.9633941,60.8294395 33.5604658,53.5065014 C39.1575374,46.1835633 41.1474103,30.9351093 39.1575374,33.8105198 C37.1963871,45.0004393 31.4053606,47.8145963 27.6577766,50.7077544 C24.0241842,53.5129101 19.1549835,54.397809 15.2017666,54.6579328 Z" id="Path-43" fill="#EB9C89" mask="url(#mask-27)"></path>
                            <path d="M4.68011156,24.9787189 C6.39784683,25.7983182 10.8528599,25.515633 13.0878496,24.9787189 C13.5847102,24.8593575 10.731782,23.7627159 9.46643103,23.7627159 C7.97914164,23.7627159 2.96237629,24.1591195 4.68011156,24.9787189 Z" id="Path-98" fill="#13287E" mask="url(#mask-27)" transform="translate(8.735826, 24.627768) rotate(4.000000) translate(-8.735826, -24.627768) "></path>
                            <path d="" id="Path-99" stroke="#979797" mask="url(#mask-27)"></path>
                            <path d="M8.16318816,43.2749818 C7.10468226,43.6028311 6.37880741,44.4957905 6.0635999,43.9234539 C5.34807357,42.7878621 9.22169405,42.9471324 8.16318816,43.2749818 Z" id="Path-100" fill="#EB9C89" mask="url(#mask-27)" transform="translate(7.161212, 43.572459) rotate(4.000000) translate(-7.161212, -43.572459) "></path>
                            <path d="M7.13345169,38.6089965 C7.84390935,39.0602132 10.2950305,40.4375169 10.2950305,41.7140809 C10.2950305,42.9906449 9.15162454,43.233096 8.73155905,43.0738555 C8.4920647,42.9356288 9.64719199,42.9356288 9.34750726,41.7140809 C8.98429122,40.5724541 6.94437913,38.6089965 7.13345169,38.6089965 Z" id="Path-104" fill="#EB9C89" mask="url(#mask-27)"></path>
                            <ellipse id="Oval-4" fill="#EB9C89" mask="url(#mask-27)" transform="translate(19.463668, 33.304498) rotate(-33.000000) translate(-19.463668, -33.304498) " cx="19.4636678" cy="33.3044983" rx="3.02768166" ry="2.16262976"></ellipse>
                            <path d="M10.8365914,47.134769 C12.030565,46.4126952 14.8235176,47.2564169 17.1211005,43.6659024 C19.4186834,40.0753879 15.5770589,51.830041 13.1243537,50.2756508 C10.6716486,48.7212607 12.7418808,50.1712152 11.8042837,49.5673051 C10.8666865,48.963395 9.43985777,49.4180963 10.8365914,47.134769 Z" id="Path-101" fill="#EB9C89" mask="url(#mask-27)"></path>
                            <path d="M33.7370242,19.9092878 C35.8081364,19.3187885 37.4738964,19.9429381 38.734304,21.7817366 C40.6249155,24.5399343 40.1328328,23.8252528 40.1328328,25.5671834 C40.1328328,27.3091141 38.734304,29.5270768 38.734304,31.934692 C38.734304,33.5397687 39.2004803,34.3476574 40.1328328,34.3583579 L42.2739207,31.1765044 L45.6082565,21.7817366 L37.5233159,14.7058824 L33.7370242,19.9092878 Z" id="Path-102" fill="#EB9C89" mask="url(#mask-27)"></path>
                        </g>
                        <path d="M190.423774,34.5328044 C191.346693,35.7691359 193.99338,31.3281419 196.978401,31.3281419 C199.963421,31.3281419 206.467784,33.1156906 206.467784,36.7904716 C206.467784,40.4652526 209.280047,41.0261847 213.894643,41.0261847 C218.509238,41.0261847 217.386107,44.7491181 221.377257,45.7142761 C225.368407,46.6794341 221.459201,40.6861619 223.856256,38.7013577 C226.253312,36.7165536 227.005163,36.6205248 229.088384,37.7581639 C231.171605,38.895803 232.095791,41.6204855 232.826946,43.8578781 C233.5581,46.0952706 225.811915,54.2587755 237.095605,59.4351481 C248.379295,64.6115207 236.493279,56.9020836 237.095605,54.2587755 C237.697931,51.6154675 243.365542,48.8374175 242.316751,43.8578781 C241.26796,38.8783386 241.404391,28.0417803 241.404391,27.102388 C241.404391,26.1629957 239.647255,26.1629957 242.316751,24.0508083 C250.546993,17.858591 246.225113,14.6399897 244.857418,11.9088249 C243.489724,9.17766003 237.168678,6.02706328 235.283558,5.40572962 C233.523497,4.82561544 232.103502,0.592177588 230.38216,2.28174335 C229.604549,3.04499959 227.134837,0 220.650749,0 C214.166661,0 209.159244,4.46802687 208.436537,8.20278709 C207.71383,11.9375473 210.908778,12.8401918 210.212259,14.1656473 C209.51574,15.4911028 181.648228,23.5076165 190.423774,34.5328044 Z" id="Path-14" fill="#031662"></path>
                        <path d="M222.832064,15.2903483 C220.982319,14.3878094 210.035378,13.4495787 210.213626,14.009666 C209.966649,14.1412239 217.384518,15.22699 221.810728,15.8343848 C226.236939,16.4417797 241.598791,23.3071085 241.598791,26.3263424 C241.598791,29.3455763 238.483252,33.2853709 241.598791,36.6154828 C243.675816,38.8355574 244.014009,36.7605029 242.613368,30.3903192 C247.640074,34.1109998 249.738783,34.4942471 248.909493,31.5400611 C248.080203,28.585875 245.981495,26.3189153 242.613368,24.7391818 C230.658996,19.0416521 224.065228,15.8920409 222.832064,15.2903483 Z" id="Path-33" stroke="#247FFB" fill="#247FFB"></path>
                    </g>
                </g>
            </g>
        </g>
    </g>
</svg>